<?xml version="1.0" encoding="UTF-8" standalone="no"?>
<!DOCTYPE svg PUBLIC "-//W3C//DTD SVG 1.1//EN"
 "http://www.w3.org/Graphics/SVG/1.1/DTD/svg11.dtd">
<!-- Generated by graphviz version 2.39.20160612.1140 (20090106.0545)
 -->
<!-- Title: ComputationGraph Pages: 1 -->
<svg width="234pt" height="1794pt"
 viewBox="0.00 0.00 234.18 1794.00" xmlns="http://www.w3.org/2000/svg" xmlns:xlink="http://www.w3.org/1999/xlink">
<g id="graph0" class="graph" transform="scale(1 1) rotate(0) translate(4 1790)">
<title>ComputationGraph</title>
<polygon fill="white" stroke="transparent" points="-4,4 -4,-1790 230.18,-1790 230.18,4 -4,4"/>
<!-- 12 -->
<g id="node1" class="node">
<title>12</title>
<polygon fill="Yellow" stroke="transparent" points="58.09,-136 58.09,-157 169.09,-157 169.09,-136 58.09,-136"/>
<polygon fill="none" stroke="black" points="58.09,-136 58.09,-157 169.09,-157 169.09,-136 58.09,-136"/>
<text text-anchor="start" x="89.09" y="-142.8" font-family="Times New Roman,serif" font-size="14.00">Layer 12</text>
<polygon fill="none" stroke="black" points="58.09,-115 58.09,-136 169.09,-136 169.09,-115 58.09,-115"/>
<text text-anchor="start" x="78.09" y="-121.8" font-family="Times New Roman,serif" font-size="14.00">OutputLayer</text>
<polygon fill="none" stroke="black" points="58.09,-94 58.09,-115 169.09,-115 169.09,-94 58.09,-94"/>
<text text-anchor="start" x="61.09" y="-100.8" font-family="Times New Roman,serif" font-size="14.00">ActivationSoftmax</text>
<polygon fill="none" stroke="black" points="58.09,-73 58.09,-94 169.09,-94 169.09,-73 58.09,-73"/>
<text text-anchor="start" x="96.59" y="-79.8" font-family="Times New Roman,serif" font-size="14.00">[1,10]</text>
</g>
<!-- 12_Loss -->
<g id="node2" class="node">
<title>12_Loss</title>
<ellipse fill="lightskyblue" stroke="lightskyblue" cx="113.09" cy="-18" rx="113.18" ry="18"/>
<text text-anchor="middle" x="113.09" y="-14.3" font-family="Times New Roman,serif" font-size="14.00">LossNegativeLogLikelihood</text>
</g>
<!-- 12&#45;&gt;12_Loss -->
<g id="edge1" class="edge">
<title>12&#45;&gt;12_Loss</title>
<path fill="none" stroke="black" d="M113.09,-72.88C113.09,-63.96 113.09,-54.73 113.09,-46.48"/>
<polygon fill="black" stroke="black" points="116.59,-46.31 113.09,-36.31 109.59,-46.31 116.59,-46.31"/>
</g>
<!-- 8 -->
<g id="node3" class="node">
<title>8</title>
<polygon fill="darkslategrey" stroke="transparent" points="60.09,-676 60.09,-697 167.09,-697 167.09,-676 60.09,-676"/>
<polygon fill="none" stroke="black" points="60.09,-676 60.09,-697 167.09,-697 167.09,-676 60.09,-676"/>
<text text-anchor="start" x="92.09" y="-682.8" font-family="Times New Roman,serif" font-size="14.00" fill="cornsilk">Layer 8</text>
<polygon fill="none" stroke="black" points="60.09,-655 60.09,-676 167.09,-676 167.09,-655 60.09,-655"/>
<text text-anchor="start" x="63.09" y="-661.8" font-family="Times New Roman,serif" font-size="14.00">ConvolutionLayer</text>
<polygon fill="none" stroke="black" points="60.09,-634 60.09,-655 167.09,-655 167.09,-634 60.09,-634"/>
<text text-anchor="start" x="68.09" y="-640.8" font-family="Times New Roman,serif" font-size="14.00">ActivationReLU</text>
<polygon fill="none" stroke="black" points="60.09,-613 60.09,-634 167.09,-634 167.09,-613 60.09,-613"/>
<text text-anchor="start" x="76.09" y="-619.8" font-family="Times New Roman,serif" font-size="14.00">[1,256,13,13]</text>
</g>
<!-- 9 -->
<g id="node4" class="node">
<title>9</title>
<polygon fill="darkslategrey" stroke="transparent" points="58.09,-540.5 58.09,-561.5 168.09,-561.5 168.09,-540.5 58.09,-540.5"/>
<polygon fill="none" stroke="black" points="58.09,-540.5 58.09,-561.5 168.09,-561.5 168.09,-540.5 58.09,-540.5"/>
<text text-anchor="start" x="91.59" y="-547.3" font-family="Times New Roman,serif" font-size="14.00" fill="cornsilk">Layer 9</text>
<polygon fill="none" stroke="black" points="58.09,-519.5 58.09,-540.5 168.09,-540.5 168.09,-519.5 58.09,-519.5"/>
<text text-anchor="start" x="61.09" y="-526.3" font-family="Times New Roman,serif" font-size="14.00">SubsamplingLayer</text>
<polygon fill="none" stroke="black" points="58.09,-498.5 58.09,-519.5 168.09,-519.5 168.09,-498.5 58.09,-498.5"/>
<text text-anchor="start" x="82.59" y="-505.3" font-family="Times New Roman,serif" font-size="14.00">[1,256,6,6]</text>
</g>
<!-- 8&#45;&gt;9 -->
<g id="edge2" class="edge">
<title>8&#45;&gt;9</title>
<path fill="none" stroke="black" d="M113.09,-612.87C113.09,-599.82 113.09,-585.39 113.09,-572.36"/>
<polygon fill="black" stroke="black" points="116.59,-572.26 113.09,-562.26 109.59,-572.26 116.59,-572.26"/>
<text text-anchor="middle" x="131.59" y="-583.8" font-family="Times New Roman,serif" font-size="14.00"> &#160;CNN</text>
</g>
<!-- 10 -->
<g id="node10" class="node">
<title>10</title>
<polygon fill="#caff70" stroke="transparent" points="0.09,-426.5 0.09,-447.5 226.09,-447.5 226.09,-426.5 0.09,-426.5"/>
<polygon fill="none" stroke="black" points="0.09,-426.5 0.09,-447.5 226.09,-447.5 226.09,-426.5 0.09,-426.5"/>
<text text-anchor="start" x="3.09" y="-433.3" font-family="Times New Roman,serif" font-size="14.00">CNN to FF (6 x 6, 256 chans, NCHW)</text>
<polygon fill="darkslategrey" stroke="transparent" points="0.09,-405.5 0.09,-426.5 226.09,-426.5 226.09,-405.5 0.09,-405.5"/>
<polygon fill="none" stroke="black" points="0.09,-405.5 0.09,-426.5 226.09,-426.5 226.09,-405.5 0.09,-405.5"/>
<text text-anchor="start" x="88.59" y="-412.3" font-family="Times New Roman,serif" font-size="14.00" fill="cornsilk">Layer 10</text>
<polygon fill="none" stroke="black" points="0.09,-384.5 0.09,-405.5 226.09,-405.5 226.09,-384.5 0.09,-384.5"/>
<text text-anchor="start" x="79.59" y="-391.3" font-family="Times New Roman,serif" font-size="14.00">DenseLayer</text>
<polygon fill="none" stroke="black" points="0.09,-363.5 0.09,-384.5 226.09,-384.5 226.09,-363.5 0.09,-363.5"/>
<text text-anchor="start" x="67.59" y="-370.3" font-family="Times New Roman,serif" font-size="14.00">ActivationReLU</text>
<polygon fill="none" stroke="black" points="0.09,-342.5 0.09,-363.5 226.09,-363.5 226.09,-342.5 0.09,-342.5"/>
<text text-anchor="start" x="89.59" y="-349.3" font-family="Times New Roman,serif" font-size="14.00">[1,4096]</text>
</g>
<!-- 9&#45;&gt;10 -->
<g id="edge6" class="edge">
<title>9&#45;&gt;10</title>
<path fill="none" stroke="black" d="M113.09,-498.99C113.09,-486.89 113.09,-472.52 113.09,-458.43"/>
<polygon fill="black" stroke="black" points="116.59,-458.25 113.09,-448.25 109.59,-458.25 116.59,-458.25"/>
<text text-anchor="middle" x="131.59" y="-469.8" font-family="Times New Roman,serif" font-size="14.00"> &#160;CNN</text>
</g>
<!-- in -->
<g id="node5" class="node">
<title>in</title>
<polygon fill="red" stroke="transparent" points="73.09,-1765 73.09,-1786 154.09,-1786 154.09,-1765 73.09,-1765"/>
<polygon fill="none" stroke="black" points="73.09,-1765 73.09,-1786 154.09,-1786 154.09,-1765 73.09,-1765"/>
<text text-anchor="start" x="108.59" y="-1771.8" font-family="Times New Roman,serif" font-size="14.00" fill="cornsilk">in</text>
<polygon fill="none" stroke="black" points="73.09,-1744 73.09,-1765 154.09,-1765 154.09,-1744 73.09,-1744"/>
<text text-anchor="start" x="76.09" y="-1750.8" font-family="Times New Roman,serif" font-size="14.00">[1,3,224,224]</text>
</g>
<!-- 0 -->
<g id="node6" class="node">
<title>0</title>
<polygon fill="darkslategrey" stroke="transparent" points="60.09,-1672 60.09,-1693 167.09,-1693 167.09,-1672 60.09,-1672"/>
<polygon fill="none" stroke="black" points="60.09,-1672 60.09,-1693 167.09,-1693 167.09,-1672 60.09,-1672"/>
<text text-anchor="start" x="92.09" y="-1678.8" font-family="Times New Roman,serif" font-size="14.00" fill="cornsilk">Layer 0</text>
<polygon fill="none" stroke="black" points="60.09,-1651 60.09,-1672 167.09,-1672 167.09,-1651 60.09,-1651"/>
<text text-anchor="start" x="63.09" y="-1657.8" font-family="Times New Roman,serif" font-size="14.00">ConvolutionLayer</text>
<polygon fill="none" stroke="black" points="60.09,-1630 60.09,-1651 167.09,-1651 167.09,-1630 60.09,-1630"/>
<text text-anchor="start" x="68.09" y="-1636.8" font-family="Times New Roman,serif" font-size="14.00">ActivationReLU</text>
<polygon fill="none" stroke="black" points="60.09,-1609 60.09,-1630 167.09,-1630 167.09,-1609 60.09,-1609"/>
<text text-anchor="start" x="79.59" y="-1615.8" font-family="Times New Roman,serif" font-size="14.00">[1,96,54,54]</text>
</g>
<!-- in&#45;&gt;0 -->
<g id="edge3" class="edge">
<title>in&#45;&gt;0</title>
<path fill="none" stroke="black" d="M113.09,-1743.98C113.09,-1732.64 113.09,-1717.88 113.09,-1703.52"/>
<polygon fill="black" stroke="black" points="116.59,-1703.19 113.09,-1693.19 109.59,-1703.19 116.59,-1703.19"/>
<text text-anchor="middle" x="131.59" y="-1714.8" font-family="Times New Roman,serif" font-size="14.00"> &#160;CNN</text>
</g>
<!-- 1 -->
<g id="node13" class="node">
<title>1</title>
<polygon fill="darkslategrey" stroke="transparent" points="28.09,-1536.5 28.09,-1557.5 199.09,-1557.5 199.09,-1536.5 28.09,-1536.5"/>
<polygon fill="none" stroke="black" points="28.09,-1536.5 28.09,-1557.5 199.09,-1557.5 199.09,-1536.5 28.09,-1536.5"/>
<text text-anchor="start" x="92.09" y="-1543.3" font-family="Times New Roman,serif" font-size="14.00" fill="cornsilk">Layer 1</text>
<polygon fill="none" stroke="black" points="28.09,-1515.5 28.09,-1536.5 199.09,-1536.5 199.09,-1515.5 28.09,-1515.5"/>
<text text-anchor="start" x="31.09" y="-1522.3" font-family="Times New Roman,serif" font-size="14.00">LocalResponseNormalization</text>
<polygon fill="none" stroke="black" points="28.09,-1494.5 28.09,-1515.5 199.09,-1515.5 199.09,-1494.5 28.09,-1494.5"/>
<text text-anchor="start" x="79.59" y="-1501.3" font-family="Times New Roman,serif" font-size="14.00">[1,96,54,54]</text>
</g>
<!-- 0&#45;&gt;1 -->
<g id="edge11" class="edge">
<title>0&#45;&gt;1</title>
<path fill="none" stroke="black" d="M113.09,-1608.87C113.09,-1595.82 113.09,-1581.39 113.09,-1568.36"/>
<polygon fill="black" stroke="black" points="116.59,-1568.26 113.09,-1558.26 109.59,-1568.26 116.59,-1568.26"/>
<text text-anchor="middle" x="131.59" y="-1579.8" font-family="Times New Roman,serif" font-size="14.00"> &#160;CNN</text>
</g>
<!-- 4 -->
<g id="node7" class="node">
<title>4</title>
<polygon fill="darkslategrey" stroke="transparent" points="58.09,-1173.5 58.09,-1194.5 168.09,-1194.5 168.09,-1173.5 58.09,-1173.5"/>
<polygon fill="none" stroke="black" points="58.09,-1173.5 58.09,-1194.5 168.09,-1194.5 168.09,-1173.5 58.09,-1173.5"/>
<text text-anchor="start" x="91.59" y="-1180.3" font-family="Times New Roman,serif" font-size="14.00" fill="cornsilk">Layer 4</text>
<polygon fill="none" stroke="black" points="58.09,-1152.5 58.09,-1173.5 168.09,-1173.5 168.09,-1152.5 58.09,-1152.5"/>
<text text-anchor="start" x="61.09" y="-1159.3" font-family="Times New Roman,serif" font-size="14.00">SubsamplingLayer</text>
<polygon fill="none" stroke="black" points="58.09,-1131.5 58.09,-1152.5 168.09,-1152.5 168.09,-1131.5 58.09,-1131.5"/>
<text text-anchor="start" x="75.59" y="-1138.3" font-family="Times New Roman,serif" font-size="14.00">[1,256,13,13]</text>
</g>
<!-- 5 -->
<g id="node8" class="node">
<title>5</title>
<polygon fill="darkslategrey" stroke="transparent" points="28.09,-1059.5 28.09,-1080.5 199.09,-1080.5 199.09,-1059.5 28.09,-1059.5"/>
<polygon fill="none" stroke="black" points="28.09,-1059.5 28.09,-1080.5 199.09,-1080.5 199.09,-1059.5 28.09,-1059.5"/>
<text text-anchor="start" x="92.09" y="-1066.3" font-family="Times New Roman,serif" font-size="14.00" fill="cornsilk">Layer 5</text>
<polygon fill="none" stroke="black" points="28.09,-1038.5 28.09,-1059.5 199.09,-1059.5 199.09,-1038.5 28.09,-1038.5"/>
<text text-anchor="start" x="31.09" y="-1045.3" font-family="Times New Roman,serif" font-size="14.00">LocalResponseNormalization</text>
<polygon fill="none" stroke="black" points="28.09,-1017.5 28.09,-1038.5 199.09,-1038.5 199.09,-1017.5 28.09,-1017.5"/>
<text text-anchor="start" x="76.09" y="-1024.3" font-family="Times New Roman,serif" font-size="14.00">[1,256,13,13]</text>
</g>
<!-- 4&#45;&gt;5 -->
<g id="edge4" class="edge">
<title>4&#45;&gt;5</title>
<path fill="none" stroke="black" d="M113.09,-1131.9C113.09,-1119.43 113.09,-1104.82 113.09,-1091.46"/>
<polygon fill="black" stroke="black" points="116.59,-1091.07 113.09,-1081.07 109.59,-1091.07 116.59,-1091.07"/>
<text text-anchor="middle" x="131.59" y="-1102.8" font-family="Times New Roman,serif" font-size="14.00"> &#160;CNN</text>
</g>
<!-- 6 -->
<g id="node11" class="node">
<title>6</title>
<polygon fill="darkslategrey" stroke="transparent" points="60.09,-946 60.09,-967 167.09,-967 167.09,-946 60.09,-946"/>
<polygon fill="none" stroke="black" points="60.09,-946 60.09,-967 167.09,-967 167.09,-946 60.09,-946"/>
<text text-anchor="start" x="92.09" y="-952.8" font-family="Times New Roman,serif" font-size="14.00" fill="cornsilk">Layer 6</text>
<polygon fill="none" stroke="black" points="60.09,-925 60.09,-946 167.09,-946 167.09,-925 60.09,-925"/>
<text text-anchor="start" x="63.09" y="-931.8" font-family="Times New Roman,serif" font-size="14.00">ConvolutionLayer</text>
<polygon fill="none" stroke="black" points="60.09,-904 60.09,-925 167.09,-925 167.09,-904 60.09,-904"/>
<text text-anchor="start" x="68.09" y="-910.8" font-family="Times New Roman,serif" font-size="14.00">ActivationReLU</text>
<polygon fill="none" stroke="black" points="60.09,-883 60.09,-904 167.09,-904 167.09,-883 60.09,-883"/>
<text text-anchor="start" x="76.09" y="-889.8" font-family="Times New Roman,serif" font-size="14.00">[1,384,13,13]</text>
</g>
<!-- 5&#45;&gt;6 -->
<g id="edge7" class="edge">
<title>5&#45;&gt;6</title>
<path fill="none" stroke="black" d="M113.09,-1017.9C113.09,-1005.71 113.09,-991.32 113.09,-977.6"/>
<polygon fill="black" stroke="black" points="116.59,-977.29 113.09,-967.29 109.59,-977.29 116.59,-977.29"/>
<text text-anchor="middle" x="131.59" y="-988.8" font-family="Times New Roman,serif" font-size="14.00"> &#160;CNN</text>
</g>
<!-- 11 -->
<g id="node9" class="node">
<title>11</title>
<polygon fill="darkslategrey" stroke="transparent" points="65.09,-271 65.09,-292 162.09,-292 162.09,-271 65.09,-271"/>
<polygon fill="none" stroke="black" points="65.09,-271 65.09,-292 162.09,-292 162.09,-271 65.09,-271"/>
<text text-anchor="start" x="89.09" y="-277.8" font-family="Times New Roman,serif" font-size="14.00" fill="cornsilk">Layer 11</text>
<polygon fill="none" stroke="black" points="65.09,-250 65.09,-271 162.09,-271 162.09,-250 65.09,-250"/>
<text text-anchor="start" x="80.09" y="-256.8" font-family="Times New Roman,serif" font-size="14.00">DenseLayer</text>
<polygon fill="none" stroke="black" points="65.09,-229 65.09,-250 162.09,-250 162.09,-229 65.09,-229"/>
<text text-anchor="start" x="68.09" y="-235.8" font-family="Times New Roman,serif" font-size="14.00">ActivationReLU</text>
<polygon fill="none" stroke="black" points="65.09,-208 65.09,-229 162.09,-229 162.09,-208 65.09,-208"/>
<text text-anchor="start" x="90.09" y="-214.8" font-family="Times New Roman,serif" font-size="14.00">[1,4096]</text>
</g>
<!-- 11&#45;&gt;12 -->
<g id="edge5" class="edge">
<title>11&#45;&gt;12</title>
<path fill="none" stroke="black" d="M113.09,-207.65C113.09,-194.89 113.09,-180.68 113.09,-167.33"/>
<polygon fill="black" stroke="black" points="116.59,-167.33 113.09,-157.33 109.59,-167.33 116.59,-167.33"/>
<text text-anchor="middle" x="125.59" y="-178.8" font-family="Times New Roman,serif" font-size="14.00"> &#160;FF</text>
</g>
<!-- 10&#45;&gt;11 -->
<g id="edge8" class="edge">
<title>10&#45;&gt;11</title>
<path fill="none" stroke="black" d="M113.09,-342.69C113.09,-329.64 113.09,-315.64 113.09,-302.6"/>
<polygon fill="black" stroke="black" points="116.59,-302.39 113.09,-292.39 109.59,-302.39 116.59,-302.39"/>
<text text-anchor="middle" x="125.59" y="-313.8" font-family="Times New Roman,serif" font-size="14.00"> &#160;FF</text>
</g>
<!-- 7 -->
<g id="node12" class="node">
<title>7</title>
<polygon fill="darkslategrey" stroke="transparent" points="60.09,-811 60.09,-832 167.09,-832 167.09,-811 60.09,-811"/>
<polygon fill="none" stroke="black" points="60.09,-811 60.09,-832 167.09,-832 167.09,-811 60.09,-811"/>
<text text-anchor="start" x="92.09" y="-817.8" font-family="Times New Roman,serif" font-size="14.00" fill="cornsilk">Layer 7</text>
<polygon fill="none" stroke="black" points="60.09,-790 60.09,-811 167.09,-811 167.09,-790 60.09,-790"/>
<text text-anchor="start" x="63.09" y="-796.8" font-family="Times New Roman,serif" font-size="14.00">ConvolutionLayer</text>
<polygon fill="none" stroke="black" points="60.09,-769 60.09,-790 167.09,-790 167.09,-769 60.09,-769"/>
<text text-anchor="start" x="68.09" y="-775.8" font-family="Times New Roman,serif" font-size="14.00">ActivationReLU</text>
<polygon fill="none" stroke="black" points="60.09,-748 60.09,-769 167.09,-769 167.09,-748 60.09,-748"/>
<text text-anchor="start" x="76.09" y="-754.8" font-family="Times New Roman,serif" font-size="14.00">[1,384,13,13]</text>
</g>
<!-- 6&#45;&gt;7 -->
<g id="edge9" class="edge">
<title>6&#45;&gt;7</title>
<path fill="none" stroke="black" d="M113.09,-882.65C113.09,-869.89 113.09,-855.68 113.09,-842.33"/>
<polygon fill="black" stroke="black" points="116.59,-842.33 113.09,-832.33 109.59,-842.33 116.59,-842.33"/>
<text text-anchor="middle" x="131.59" y="-853.8" font-family="Times New Roman,serif" font-size="14.00"> &#160;CNN</text>
</g>
<!-- 7&#45;&gt;8 -->
<g id="edge13" class="edge">
<title>7&#45;&gt;8</title>
<path fill="none" stroke="black" d="M113.09,-747.65C113.09,-734.89 113.09,-720.68 113.09,-707.33"/>
<polygon fill="black" stroke="black" points="116.59,-707.33 113.09,-697.33 109.59,-707.33 116.59,-707.33"/>
<text text-anchor="middle" x="131.59" y="-718.8" font-family="Times New Roman,serif" font-size="14.00"> &#160;CNN</text>
</g>
<!-- 2 -->
<g id="node14" class="node">
<title>2</title>
<polygon fill="darkslategrey" stroke="transparent" points="58.09,-1422.5 58.09,-1443.5 168.09,-1443.5 168.09,-1422.5 58.09,-1422.5"/>
<polygon fill="none" stroke="black" points="58.09,-1422.5 58.09,-1443.5 168.09,-1443.5 168.09,-1422.5 58.09,-1422.5"/>
<text text-anchor="start" x="91.59" y="-1429.3" font-family="Times New Roman,serif" font-size="14.00" fill="cornsilk">Layer 2</text>
<polygon fill="none" stroke="black" points="58.09,-1401.5 58.09,-1422.5 168.09,-1422.5 168.09,-1401.5 58.09,-1401.5"/>
<text text-anchor="start" x="61.09" y="-1408.3" font-family="Times New Roman,serif" font-size="14.00">SubsamplingLayer</text>
<polygon fill="none" stroke="black" points="58.09,-1380.5 58.09,-1401.5 168.09,-1401.5 168.09,-1380.5 58.09,-1380.5"/>
<text text-anchor="start" x="79.09" y="-1387.3" font-family="Times New Roman,serif" font-size="14.00">[1,96,27,27]</text>
</g>
<!-- 1&#45;&gt;2 -->
<g id="edge10" class="edge">
<title>1&#45;&gt;2</title>
<path fill="none" stroke="black" d="M113.09,-1494.9C113.09,-1482.43 113.09,-1467.82 113.09,-1454.46"/>
<polygon fill="black" stroke="black" points="116.59,-1454.07 113.09,-1444.07 109.59,-1454.07 116.59,-1454.07"/>
<text text-anchor="middle" x="131.59" y="-1465.8" font-family="Times New Roman,serif" font-size="14.00"> &#160;CNN</text>
</g>
<!-- 3 -->
<g id="node15" class="node">
<title>3</title>
<polygon fill="darkslategrey" stroke="transparent" points="60.09,-1309 60.09,-1330 167.09,-1330 167.09,-1309 60.09,-1309"/>
<polygon fill="none" stroke="black" points="60.09,-1309 60.09,-1330 167.09,-1330 167.09,-1309 60.09,-1309"/>
<text text-anchor="start" x="92.09" y="-1315.8" font-family="Times New Roman,serif" font-size="14.00" fill="cornsilk">Layer 3</text>
<polygon fill="none" stroke="black" points="60.09,-1288 60.09,-1309 167.09,-1309 167.09,-1288 60.09,-1288"/>
<text text-anchor="start" x="63.09" y="-1294.8" font-family="Times New Roman,serif" font-size="14.00">ConvolutionLayer</text>
<polygon fill="none" stroke="black" points="60.09,-1267 60.09,-1288 167.09,-1288 167.09,-1267 60.09,-1267"/>
<text text-anchor="start" x="68.09" y="-1273.8" font-family="Times New Roman,serif" font-size="14.00">ActivationReLU</text>
<polygon fill="none" stroke="black" points="60.09,-1246 60.09,-1267 167.09,-1267 167.09,-1246 60.09,-1246"/>
<text text-anchor="start" x="76.09" y="-1252.8" font-family="Times New Roman,serif" font-size="14.00">[1,256,27,27]</text>
</g>
<!-- 2&#45;&gt;3 -->
<g id="edge12" class="edge">
<title>2&#45;&gt;3</title>
<path fill="none" stroke="black" d="M113.09,-1380.9C113.09,-1368.71 113.09,-1354.32 113.09,-1340.6"/>
<polygon fill="black" stroke="black" points="116.59,-1340.29 113.09,-1330.29 109.59,-1340.29 116.59,-1340.29"/>
<text text-anchor="middle" x="131.59" y="-1351.8" font-family="Times New Roman,serif" font-size="14.00"> &#160;CNN</text>
</g>
<!-- 3&#45;&gt;4 -->
<g id="edge14" class="edge">
<title>3&#45;&gt;4</title>
<path fill="none" stroke="black" d="M113.09,-1245.87C113.09,-1232.82 113.09,-1218.39 113.09,-1205.36"/>
<polygon fill="black" stroke="black" points="116.59,-1205.26 113.09,-1195.26 109.59,-1205.26 116.59,-1205.26"/>
<text text-anchor="middle" x="131.59" y="-1216.8" font-family="Times New Roman,serif" font-size="14.00"> &#160;CNN</text>
</g>
</g>
</svg>
